<?xml version="1.0" encoding="utf-8"?>
<svg version="1.1" id="Layer_1" xmlns="http://www.w3.org/2000/svg" xmlns:xlink="http://www.w3.org/1999/xlink" x="0px" y="0px"
	 viewBox="0 0 119.12 87.333" enable-background="new 0 0 119.12 87.333" xml:space="preserve">
<text transform="matrix(1 0 0 1 25.2078 84.3333)" font-size="12">r&amp;b</text>
<text transform="matrix(1 0 0 1 84.7035 18.9997)" font-size="10">house</text>
<text transform="matrix(-1.346898e-010 1 -1 -1.346898e-010 33.3696 0)" font-size="12">música</text>
<text transform="matrix(1 0 0 1 13.37 64.666)" font-size="13">pop</text>
<text transform="matrix(1 0 0 1 46.3699 18.9997)" font-size="9">jazz</text>
<text transform="matrix(1 0 0 1 11.703 45.6665)" font-size="14">entretenimento</text>
<text transform="matrix(1 0 0 1 46.703 84.3333)" font-size="10">festa</text>
<text transform="matrix(4.489659e-011 -1 1 4.489659e-011 115.3701 64.333)" font-size="15">festival</text>
<text transform="matrix(1 0 0 1 13.3693 55.6668)" font-size="8">bilhete</text>
<text transform="matrix(1 0 0 1 80.0366 74)" font-size="12">cartaz</text>
<text transform="matrix(1 0 0 1 70.37 84.3332)" font-size="12">indie</text>
<text transform="matrix(1 0 0 1 44.3699 32.3335)" font-size="14">rock</text>
<text transform="matrix(1 0 0 1 62.3698 18.3332)" font-size="12">pop</text>
<text transform="matrix(1 0 0 1 7.0365 73.9998)" font-size="8">metal</text>
<text transform="matrix(1 0 0 1 28.0365 73.9998)" font-size="11">alternativo</text>
<text transform="matrix(1 0 0 1 39.3698 61.6665)" font-size="18">portugal</text>
<text transform="matrix(1 0 0 1 73.3698 32.3337)" font-size="12">verão</text>
<text transform="matrix(1 0 0 1 15.7035 25.0002)" font-size="9">trap</text>
<text transform="matrix(1 0 0 1 10.37 33.3337)" font-size="8">trance</text>
<text transform="matrix(4.489659e-011 -1 1 4.489659e-011 8.37 66.666)" font-size="10">convívio</text>
</svg>
